<svg width="22" height="21" viewBox="0 0 22 21" fill="none" xmlns="http://www.w3.org/2000/svg">
<path d="M11 -0.00100708C16.524 -0.00100708 21.002 4.47699 21.002 10.001C21.002 15.524 16.524 20.002 11 20.002C5.47599 20.002 0.997986 15.524 0.997986 10.001C0.997986 4.47699 5.47599 -0.00100708 11 -0.00100708ZM11 1.49899C9.87579 1.4868 8.76035 1.69769 7.7182 2.11946C6.67606 2.54124 5.72792 3.16551 4.92865 3.95616C4.12938 4.74681 3.49486 5.68813 3.06181 6.72563C2.62876 7.76314 2.40578 8.87624 2.40578 10.0005C2.40578 11.1248 2.62876 12.2378 3.06181 13.2754C3.49486 14.3129 4.12938 15.2542 4.92865 16.0448C5.72792 16.8355 6.67606 17.4597 7.7182 17.8815C8.76035 18.3033 9.87579 18.5142 11 18.502C13.232 18.4678 15.361 17.5571 16.9273 15.9665C18.4937 14.376 19.3716 12.2333 19.3716 10.001C19.3716 7.76871 18.4937 5.62597 16.9273 4.03545C15.361 2.44493 13.232 1.53423 11 1.49999V1.49899ZM7.46199 12.784C7.88273 13.32 8.41994 13.7532 9.03292 14.0509C9.64589 14.3485 10.3186 14.5028 11 14.502C11.6806 14.5028 12.3524 14.3489 12.9648 14.0519C13.5772 13.755 14.1141 13.3228 14.535 12.788C14.6583 12.6319 14.8386 12.5312 15.0362 12.5081C15.2337 12.4849 15.4324 12.5412 15.5885 12.6645C15.7446 12.7878 15.8453 12.9681 15.8684 13.1657C15.8916 13.3632 15.8353 13.5619 15.712 13.718C15.1507 14.4306 14.435 15.0064 13.6187 15.4021C12.8025 15.7977 11.9071 16.0028 11 16.002C10.0917 16.0027 9.19522 15.797 8.3782 15.4002C7.56118 15.0035 6.84506 14.4262 6.28399 13.712C6.16618 13.5553 6.11438 13.3588 6.13966 13.1644C6.16495 12.9701 6.26532 12.7933 6.41928 12.6721C6.57324 12.5508 6.76857 12.4946 6.96345 12.5155C7.15833 12.5364 7.33727 12.6328 7.46199 12.784ZM7.99999 6.74999C8.16705 6.74527 8.33336 6.77409 8.48909 6.83476C8.64481 6.89542 8.7868 6.9867 8.90663 7.1032C9.02647 7.21969 9.12173 7.35904 9.18678 7.51298C9.25182 7.66693 9.28534 7.83237 9.28534 7.99949C9.28534 8.16662 9.25182 8.33205 9.18678 8.486C9.12173 8.63995 9.02647 8.77929 8.90663 8.89579C8.7868 9.01228 8.64481 9.10356 8.48909 9.16423C8.33336 9.2249 8.16705 9.25372 7.99999 9.24899C7.67472 9.23979 7.36586 9.10411 7.13904 8.87079C6.91223 8.63747 6.78534 8.32489 6.78534 7.99949C6.78534 7.67409 6.91223 7.36152 7.13904 7.1282C7.36586 6.89488 7.67472 6.7592 7.99999 6.74999ZM14 6.74999C14.167 6.74527 14.3334 6.77409 14.4891 6.83476C14.6448 6.89542 14.7868 6.9867 14.9066 7.1032C15.0265 7.21969 15.1217 7.35904 15.1868 7.51298C15.2518 7.66693 15.2853 7.83237 15.2853 7.99949C15.2853 8.16662 15.2518 8.33205 15.1868 8.486C15.1217 8.63995 15.0265 8.77929 14.9066 8.89579C14.7868 9.01228 14.6448 9.10356 14.4891 9.16423C14.3334 9.2249 14.167 9.25372 14 9.24899C13.6747 9.23979 13.3659 9.10411 13.139 8.87079C12.9122 8.63747 12.7853 8.32489 12.7853 7.99949C12.7853 7.67409 12.9122 7.36152 13.139 7.1282C13.3659 6.89488 13.6747 6.7592 14 6.74999Z" fill="#707991"/>
</svg>
